<svg width="58" height="58" viewBox="0 0 58 58" fill="none" xmlns="http://www.w3.org/2000/svg">
<rect width="58" height="58" rx="4" fill="#3077C6"/>
<path d="M2.58568 26.6094C2.53202 26.5215 2.48219 26.4017 2.43619 26.2499C2.39019 26.0981 2.36719 25.9383 2.36719 25.7706C2.36719 25.459 2.43235 25.2353 2.56268 25.0995C2.70068 24.9637 2.87701 24.8958 3.09167 24.8958H8.10557C8.15924 24.9837 8.20907 25.1035 8.25507 25.2553C8.30107 25.4071 8.32407 25.5669 8.32407 25.7346C8.32407 26.0462 8.25507 26.2699 8.11707 26.4057C7.98674 26.5415 7.81424 26.6094 7.59958 26.6094H6.32311V32.1456C6.23878 32.1696 6.10461 32.1936 5.92062 32.2175C5.74429 32.2415 5.56796 32.2535 5.39163 32.2535C5.2153 32.2535 5.05813 32.2375 4.92014 32.2056C4.7898 32.1816 4.67864 32.1337 4.58664 32.0618C4.49464 31.9899 4.42565 31.89 4.37965 31.7622C4.33365 31.6344 4.31065 31.4666 4.31065 31.2589V26.6094H2.58568Z" fill="white"/>
<path d="M10.6427 32.1816C10.566 32.2056 10.4434 32.2295 10.2747 32.2535C10.1137 32.2775 9.94505 32.2894 9.76872 32.2894C9.60006 32.2894 9.44673 32.2775 9.30873 32.2535C9.1784 32.2295 9.06724 32.1816 8.97524 32.1097C8.88324 32.0378 8.81041 31.9419 8.75675 31.8221C8.71075 31.6943 8.68775 31.5305 8.68775 31.3308V27.7358C8.68775 27.5521 8.71841 27.3963 8.77974 27.2685C8.84874 27.1327 8.94457 27.0128 9.06724 26.909C9.1899 26.8051 9.3394 26.7133 9.51573 26.6334C9.69973 26.5455 9.89522 26.4696 10.1022 26.4057C10.3092 26.3418 10.5239 26.2938 10.7462 26.2619C10.9685 26.2219 11.1909 26.202 11.4132 26.202C11.7812 26.202 12.0725 26.2779 12.2872 26.4297C12.5018 26.5735 12.6092 26.8131 12.6092 27.1486C12.6092 27.2605 12.5938 27.3723 12.5632 27.4842C12.5325 27.588 12.4942 27.6839 12.4482 27.7718C12.2872 27.7718 12.1223 27.7798 11.9537 27.7957C11.785 27.8117 11.6202 27.8357 11.4592 27.8676C11.2982 27.8996 11.1449 27.9355 10.9992 27.9755C10.8612 28.0074 10.7424 28.0474 10.6427 28.0953V32.1816Z" fill="white"/>
<path d="M13.3697 24.752C13.3697 24.4484 13.4655 24.1928 13.6572 23.9851C13.8565 23.7774 14.1172 23.6735 14.4392 23.6735C14.7611 23.6735 15.018 23.7774 15.2096 23.9851C15.409 24.1928 15.5086 24.4484 15.5086 24.752C15.5086 25.0556 15.409 25.3112 15.2096 25.5189C15.018 25.7266 14.7611 25.8305 14.4392 25.8305C14.1172 25.8305 13.8565 25.7266 13.6572 25.5189C13.4655 25.3112 13.3697 25.0556 13.3697 24.752ZM15.4166 32.1816C15.3323 32.1976 15.2058 32.2175 15.0371 32.2415C14.8761 32.2735 14.7113 32.2894 14.5427 32.2894C14.374 32.2894 14.2207 32.2775 14.0827 32.2535C13.9523 32.2295 13.8412 32.1816 13.7492 32.1097C13.6572 32.0378 13.5843 31.9419 13.5307 31.8221C13.4847 31.6943 13.4617 31.5305 13.4617 31.3308V26.4536C13.546 26.4376 13.6687 26.4177 13.8297 26.3937C13.9983 26.3618 14.167 26.3458 14.3357 26.3458C14.5043 26.3458 14.6538 26.3578 14.7841 26.3817C14.9221 26.4057 15.0371 26.4536 15.1291 26.5255C15.2211 26.5974 15.2901 26.6973 15.3361 26.8251C15.3898 26.9449 15.4166 27.1047 15.4166 27.3044V32.1816Z" fill="white"/>
<path d="M19.2257 26.19C19.6857 26.19 20.1111 26.2539 20.5021 26.3817C20.9008 26.5016 21.242 26.6893 21.5256 26.9449C21.8093 27.2006 22.0316 27.5241 22.1926 27.9156C22.3536 28.299 22.4341 28.7584 22.4341 29.2936C22.4341 29.8049 22.3651 30.2523 22.2271 30.6358C22.0891 31.0192 21.8936 31.3428 21.6406 31.6064C21.3876 31.862 21.081 32.0538 20.7206 32.1816C20.368 32.3094 19.9732 32.3733 19.5362 32.3733C19.2065 32.3733 18.8998 32.3214 18.6162 32.2175V34.2068C18.5395 34.2307 18.4168 34.2547 18.2482 34.2787C18.0795 34.3106 17.907 34.3266 17.7307 34.3266C17.562 34.3266 17.4087 34.3146 17.2707 34.2906C17.1404 34.2667 17.0292 34.2187 16.9372 34.1468C16.8452 34.0749 16.7762 33.9751 16.7302 33.8473C16.6842 33.7274 16.6612 33.5676 16.6612 33.3679V27.616C16.6612 27.4003 16.7034 27.2245 16.7877 27.0887C16.8797 26.9529 17.0024 26.8291 17.1557 26.7173C17.3934 26.5575 17.6885 26.4297 18.0412 26.3338C18.3938 26.2379 18.7887 26.19 19.2257 26.19ZM19.2487 30.7676C20.0383 30.7676 20.4331 30.2763 20.4331 29.2936C20.4331 28.7824 20.3335 28.4029 20.1341 28.1552C19.9425 27.9076 19.6627 27.7838 19.2947 27.7838C19.149 27.7838 19.0187 27.8037 18.9037 27.8437C18.7887 27.8756 18.689 27.9156 18.6047 27.9635V30.5998C18.6967 30.6477 18.7963 30.6877 18.9037 30.7196C19.011 30.7516 19.126 30.7676 19.2487 30.7676Z" fill="white"/>
<path d="M29.7705 32.1456C29.6862 32.1696 29.552 32.1936 29.368 32.2175C29.1917 32.2415 29.0154 32.2535 28.839 32.2535C28.6627 32.2535 28.5055 32.2375 28.3675 32.2056C28.2372 32.1816 28.126 32.1337 28.034 32.0618C27.942 31.9899 27.873 31.89 27.827 31.7622C27.781 31.6344 27.758 31.4666 27.758 31.2589V29.3895H25.5501V32.1456C25.4658 32.1696 25.3316 32.1936 25.1476 32.2175C24.9713 32.2415 24.7949 32.2535 24.6186 32.2535C24.4423 32.2535 24.2851 32.2375 24.1471 32.2056C24.0168 32.1816 23.9056 32.1337 23.8136 32.0618C23.7216 31.9899 23.6526 31.89 23.6066 31.7622C23.5606 31.6344 23.5376 31.4666 23.5376 31.2589V24.9318C23.622 24.9158 23.7561 24.8958 23.9401 24.8718C24.1241 24.8399 24.3004 24.8239 24.4691 24.8239C24.6454 24.8239 24.7988 24.8399 24.9291 24.8718C25.0671 24.8958 25.1821 24.9437 25.2741 25.0156C25.3661 25.0875 25.4351 25.1874 25.4811 25.3152C25.5271 25.443 25.5501 25.6108 25.5501 25.8185V27.7358H27.758V24.9318C27.8424 24.9158 27.9765 24.8958 28.1605 24.8718C28.3445 24.8399 28.5209 24.8239 28.6895 24.8239C28.8659 24.8239 29.0192 24.8399 29.1495 24.8718C29.2875 24.8958 29.4025 24.9437 29.4945 25.0156C29.5865 25.0875 29.6555 25.1874 29.7015 25.3152C29.7475 25.443 29.7705 25.6108 29.7705 25.8185V32.1456Z" fill="white"/>
<path d="M36.8989 29.2817C36.8989 29.777 36.8261 30.2203 36.6804 30.6118C36.5348 30.9953 36.3278 31.3188 36.0594 31.5824C35.7988 31.8461 35.4844 32.0458 35.1165 32.1816C34.7485 32.3174 34.3383 32.3853 33.886 32.3853C33.4337 32.3853 33.0235 32.3134 32.6555 32.1696C32.2875 32.0258 31.9694 31.8221 31.701 31.5585C31.4404 31.2868 31.2372 30.9593 31.0915 30.5758C30.9459 30.1924 30.873 29.761 30.873 29.2817C30.873 28.8103 30.9459 28.3829 31.0915 27.9995C31.2372 27.616 31.4404 27.2924 31.701 27.0288C31.9694 26.7572 32.2875 26.5495 32.6555 26.4057C33.0235 26.2619 33.4337 26.19 33.886 26.19C34.3383 26.19 34.7485 26.2659 35.1165 26.4177C35.4844 26.5615 35.7988 26.7692 36.0594 27.0408C36.3278 27.3044 36.5348 27.628 36.6804 28.0114C36.8261 28.3949 36.8989 28.8183 36.8989 29.2817ZM32.874 29.2817C32.874 29.769 32.9622 30.1444 33.1385 30.4081C33.3225 30.6637 33.5755 30.7915 33.8975 30.7915C34.2195 30.7915 34.4648 30.6597 34.6335 30.3961C34.8098 30.1325 34.898 29.761 34.898 29.2817C34.898 28.8023 34.8098 28.4348 34.6335 28.1792C34.4571 27.9156 34.208 27.7838 33.886 27.7838C33.564 27.7838 33.3148 27.9156 33.1385 28.1792C32.9622 28.4348 32.874 28.8023 32.874 29.2817Z" fill="white"/>
<path d="M37.8527 26.4536C37.9293 26.4297 38.0482 26.4057 38.2092 26.3817C38.3778 26.3578 38.5503 26.3458 38.7267 26.3458C38.8953 26.3458 39.0448 26.3578 39.1752 26.3817C39.3132 26.4057 39.4282 26.4536 39.5201 26.5255C39.6121 26.5974 39.6811 26.6973 39.7271 26.8251C39.7808 26.9449 39.8076 27.1047 39.8076 27.3044V29.8808C39.8076 30.2084 39.8843 30.444 40.0376 30.5878C40.191 30.7236 40.4133 30.7915 40.7046 30.7915C40.881 30.7915 41.0228 30.7756 41.1301 30.7436C41.2451 30.7117 41.3333 30.6797 41.3946 30.6477V26.4536C41.4713 26.4297 41.5901 26.4057 41.7511 26.3817C41.9198 26.3578 42.0923 26.3458 42.2686 26.3458C42.4373 26.3458 42.5868 26.3578 42.7171 26.3817C42.8551 26.4057 42.9701 26.4536 43.0621 26.5255C43.1541 26.5974 43.2231 26.6973 43.2691 26.8251C43.3227 26.9449 43.3496 27.1047 43.3496 27.3044V30.9473C43.3496 31.3468 43.1886 31.6463 42.8666 31.8461C42.5983 32.0218 42.2763 32.1536 41.9006 32.2415C41.5326 32.3374 41.1301 32.3853 40.6931 32.3853C40.2791 32.3853 39.8958 32.3374 39.5431 32.2415C39.1982 32.1456 38.8992 31.9978 38.6462 31.7981C38.3932 31.5984 38.1977 31.3428 38.0597 31.0312C37.9217 30.7117 37.8527 30.3282 37.8527 29.8808V26.4536Z" fill="white"/>
<path d="M49.2608 30.456C49.2608 31.0632 49.0423 31.5385 48.6053 31.882C48.1683 32.2255 47.5243 32.3973 46.6734 32.3973C46.3514 32.3973 46.0524 32.3733 45.7764 32.3254C45.5004 32.2775 45.2627 32.2056 45.0634 32.1097C44.8717 32.0058 44.7184 31.878 44.6034 31.7262C44.4961 31.5744 44.4424 31.3947 44.4424 31.187C44.4424 30.9953 44.4807 30.8355 44.5574 30.7077C44.6341 30.5718 44.7261 30.46 44.8334 30.3721C45.0557 30.5 45.3087 30.6158 45.5924 30.7196C45.8837 30.8155 46.2172 30.8634 46.5929 30.8634C46.8305 30.8634 47.0107 30.8275 47.1334 30.7556C47.2637 30.6837 47.3288 30.5878 47.3288 30.468C47.3288 30.3562 47.2828 30.2683 47.1908 30.2044C47.0989 30.1405 46.9455 30.0885 46.7309 30.0486L46.3859 29.9767C45.7189 29.8409 45.2206 29.6292 44.8909 29.3416C44.5689 29.046 44.4079 28.6266 44.4079 28.0833C44.4079 27.7878 44.4692 27.5201 44.5919 27.2805C44.7146 27.0408 44.8871 26.8411 45.1094 26.6813C45.3317 26.5215 45.5962 26.3977 45.9029 26.3098C46.2172 26.2219 46.5622 26.178 46.9379 26.178C47.2215 26.178 47.486 26.202 47.7313 26.2499C47.9843 26.2899 48.2028 26.3538 48.3868 26.4416C48.5708 26.5295 48.7165 26.6454 48.8238 26.7892C48.9311 26.925 48.9848 27.0887 48.9848 27.2805C48.9848 27.4642 48.9503 27.624 48.8813 27.7598C48.82 27.8876 48.7395 27.9955 48.6398 28.0833C48.5785 28.0434 48.4865 28.0035 48.3638 27.9635C48.2412 27.9156 48.107 27.8756 47.9613 27.8437C47.8157 27.8037 47.6662 27.7718 47.5128 27.7478C47.3672 27.7238 47.233 27.7119 47.1104 27.7119C46.8574 27.7119 46.6619 27.7438 46.5239 27.8077C46.3859 27.8636 46.3169 27.9555 46.3169 28.0833C46.3169 28.1712 46.3552 28.2431 46.4319 28.299C46.5085 28.355 46.6542 28.4069 46.8689 28.4548L47.2254 28.5387C47.9613 28.7145 48.4827 28.9581 48.7893 29.2697C49.1036 29.5732 49.2608 29.9687 49.2608 30.456Z" fill="white"/>
<path d="M53.2175 32.3853C52.7652 32.3853 52.3436 32.3214 51.9526 32.1936C51.5692 32.0578 51.2319 31.858 50.9406 31.5944C50.6569 31.3308 50.4308 30.9992 50.2621 30.5998C50.1011 30.2004 50.0206 29.733 50.0206 29.1978C50.0206 28.6705 50.1011 28.2191 50.2621 27.8437C50.4308 27.4602 50.6493 27.1486 50.9176 26.909C51.1859 26.6613 51.4926 26.4816 51.8376 26.3697C52.1826 26.2499 52.5352 26.19 52.8955 26.19C53.3019 26.19 53.6699 26.2539 53.9995 26.3817C54.3368 26.5095 54.6243 26.6853 54.862 26.909C55.1073 27.1327 55.2952 27.4003 55.4255 27.7119C55.5635 28.0234 55.6325 28.3629 55.6325 28.7304C55.6325 29.0021 55.5597 29.2098 55.414 29.3536C55.2683 29.4974 55.0652 29.5892 54.8045 29.6292L51.9641 30.0725C52.0484 30.3362 52.2209 30.5359 52.4816 30.6717C52.7422 30.7995 53.0412 30.8634 53.3785 30.8634C53.6929 30.8634 53.988 30.8235 54.264 30.7436C54.5477 30.6557 54.7777 30.5559 54.954 30.444C55.0767 30.5239 55.1802 30.6358 55.2645 30.7796C55.3488 30.9234 55.391 31.0751 55.391 31.2349C55.391 31.5944 55.23 31.862 54.908 32.0378C54.6627 32.1736 54.3867 32.2655 54.08 32.3134C53.7734 32.3613 53.4859 32.3853 53.2175 32.3853ZM52.8955 27.6759C52.7115 27.6759 52.5505 27.7079 52.4126 27.7718C52.2822 27.8357 52.1749 27.9196 52.0906 28.0234C52.0062 28.1193 51.9411 28.2311 51.8951 28.359C51.8567 28.4788 51.8337 28.6026 51.8261 28.7304L53.7925 28.3949C53.7695 28.2351 53.6852 28.0754 53.5395 27.9156C53.3939 27.7558 53.1792 27.6759 52.8955 27.6759Z" fill="white"/>
</svg>
